<svg xmlns="http://www.w3.org/2000/svg" version="1.1" xml:space="preserve" width="292" height="68.5999984741211"><rect id="backgroundrect" width="100%" height="100%" x="0" y="0" fill="none" stroke="none"/><style type="text/css">.st0,.st1{fill-rule:evenodd;clip-rule:evenodd;fill:#ffd600}.st1{fill:#fff}</style>
    
    
    
    
    <g class="currentLayer" style=""><title>Layer 1</title><rect fill="#00325a" stroke-dashoffset="" fill-rule="nonzero" id="svg_1" x="-13" y="-9" width="323" height="97" style="color: rgb(0, 50, 90);" class="selected"/><g class=""><path class="st1" d="M12.688274506936981,16.9778709744283 H47.4851492685184 c5.952096998691559,0 10.835868895053864,4.8837718963623065 10.835868895053864,10.835868895053864 v12.81990122795105 c0,5.952096998691559 -4.8837718963623065,10.835868895053864 -10.835868895053864,10.835868895053864 h-34.79687476158142 V16.9778709744283 zm34.94949263334274,-9.309690177440643 h-44.259182810783386 v53.263637244701385 h44.259182810783386 c11.141104638576508,0 20.29817694425583,-9.157072305679321 20.29817694425583,-20.29817694425583 v-12.81990122795105 c-0.15261787176132213,-11.141104638576508 -9.157072305679321,-20.145559072494507 -20.29817694425583,-20.145559072494507 zM154.3176595014438,29.492536458856705 v31.286663711071014 h55.09505170583725 v-9.462308049201965 h-45.632743656635284 v-12.362047612667084 h38.00185006856918 v-9.462308049201965 h-38.00185006856918 zM88.53935677231404,16.9778709744283 h34.79687476158142 c5.952096998691559,0 10.835868895053864,4.8837718963623065 10.835868895053864,10.835868895053864 v12.81990122795105 c0,5.952096998691559 -4.8837718963623065,10.835868895053864 -10.835868895053864,10.835868895053864 h-34.79687476158142 V16.9778709744283 zm34.79687476158142,-9.309690177440643 h-44.259182810783386 v53.263637244701385 h44.259182810783386 c11.141104638576508,0 20.29817694425583,-9.157072305679321 20.29817694425583,-20.29817694425583 v-12.81990122795105 c0,-11.141104638576508 -9.157072305679321,-20.145559072494507 -20.29817694425583,-20.145559072494507 zm96.14925920963287,0 l29.15001350641251,50.36389768123627 l1.5261787176132202,2.7471216917037964 h7.630893588066101 l1.6787965893745427,-2.7471216917037964 l29.15001350641251,-50.36389768123627 h-10.988486766815186 l-23.655770123004913,40.9015896320343 l-23.655770123004913,-40.9015896320343 z" id="svg_4"/><path class="st0" d="M163.77996755064575,16.9778709744283 h45.632743656635284 v-9.309690177440643 H154.3176595014438 V16.9778709744283 z" id="svg_5"/></g></g></svg>