<?xml version="1.0" encoding="UTF-8"?>
<svg xmlns="http://www.w3.org/2000/svg" xmlns:xlink="http://www.w3.org/1999/xlink" width="15pt" height="12pt" viewBox="0 0 15 12" version="1.1">
<g id="surface1">
<rect x="0" y="0" width="15" height="12" style="fill:rgb(0%,19.607843%,35.294118%);fill-opacity:1;stroke:none;"/>
<path style=" stroke:none;fill-rule:evenodd;fill:rgb(100%,83.921569%,0%);fill-opacity:1;" d="M 6.78125 1.535156 L 11.1875 1.535156 L 13.554688 4.03125 L 13.554688 7.96875 L 11.1875 10.464844 L 7.21875 10.464844 C 7.113281 10.335938 6.945312 10.238281 6.765625 10.238281 C 6.445312 10.238281 6.175781 10.511719 6.175781 10.863281 C 6.175781 11.199219 6.433594 11.488281 6.765625 11.488281 C 6.945312 11.488281 7.097656 11.40625 7.21875 11.265625 L 11.507812 11.265625 L 14.3125 8.304688 L 14.3125 3.695312 L 11.507812 0.734375 L 6.78125 0.734375 C 6.675781 0.609375 6.507812 0.511719 6.324219 0.511719 C 6.007812 0.511719 5.734375 0.785156 5.734375 1.136719 C 5.734375 1.472656 5.992188 1.761719 6.324219 1.761719 C 6.507812 1.761719 6.675781 1.664062 6.78125 1.535156 Z M 6.324219 0.863281 C 6.460938 0.863281 6.566406 0.976562 6.566406 1.121094 C 6.566406 1.265625 6.460938 1.375 6.324219 1.375 C 6.1875 1.375 6.082031 1.265625 6.082031 1.121094 C 6.082031 0.992188 6.1875 0.863281 6.324219 0.863281 Z M 6.78125 10.609375 C 6.917969 10.609375 7.023438 10.71875 7.023438 10.863281 C 7.023438 11.007812 6.917969 11.121094 6.78125 11.121094 C 6.644531 11.121094 6.539062 11.007812 6.539062 10.863281 C 6.539062 10.71875 6.644531 10.609375 6.78125 10.609375 Z M 6.78125 10.609375 "/>
<path style=" stroke:none;fill-rule:evenodd;fill:rgb(100%,83.921569%,0%);fill-opacity:1;" d="M 10.886719 2.335938 L 5.25 2.335938 L 5.25 2.351562 C 5.144531 2.222656 4.992188 2.160156 4.824219 2.160156 C 4.507812 2.160156 4.234375 2.433594 4.234375 2.785156 C 4.234375 3.121094 4.492188 3.40625 4.824219 3.40625 C 5.023438 3.40625 5.203125 3.3125 5.3125 3.152344 L 10.566406 3.152344 L 12.039062 4.703125 L 12.039062 7.3125 L 10.566406 8.863281 L 5.21875 8.863281 C 5.113281 8.734375 4.945312 8.640625 4.765625 8.640625 C 4.445312 8.640625 4.175781 8.910156 4.175781 9.265625 C 4.175781 9.601562 4.433594 9.886719 4.765625 9.886719 C 4.945312 9.886719 5.097656 9.808594 5.21875 9.664062 L 10.871094 9.664062 L 12.78125 7.648438 L 12.78125 4.351562 Z M 4.824219 2.527344 C 4.960938 2.527344 5.066406 2.640625 5.066406 2.785156 C 5.066406 2.929688 4.960938 3.039062 4.824219 3.039062 C 4.6875 3.039062 4.582031 2.929688 4.582031 2.785156 C 4.566406 2.640625 4.6875 2.527344 4.824219 2.527344 Z M 4.78125 8.992188 C 4.917969 8.992188 5.023438 9.105469 5.023438 9.246094 C 5.023438 9.390625 4.917969 9.503906 4.78125 9.503906 C 4.644531 9.503906 4.539062 9.390625 4.539062 9.246094 C 4.523438 9.105469 4.644531 8.992188 4.78125 8.992188 Z M 4.78125 8.992188 "/>
<path style=" stroke:none;fill-rule:evenodd;fill:rgb(100%,83.921569%,0%);fill-opacity:1;" d="M 10.007812 8.03125 L 3.160156 8.03125 C 3.054688 8.144531 2.917969 8.207031 2.75 8.207031 C 2.433594 8.207031 2.160156 7.9375 2.160156 7.585938 C 2.160156 7.246094 2.417969 6.960938 2.75 6.960938 C 2.945312 6.960938 3.128906 7.070312 3.234375 7.230469 L 5.113281 7.230469 L 4.324219 6.398438 L 1.734375 6.398438 C 1.628906 6.527344 1.460938 6.625 1.28125 6.625 C 0.960938 6.625 0.6875 6.351562 0.6875 6 C 0.6875 5.664062 0.945312 5.375 1.28125 5.375 C 1.460938 5.375 1.613281 5.457031 1.734375 5.601562 L 4.644531 5.601562 L 6.203125 7.230469 L 9.933594 7.230469 L 10.492188 6.640625 L 10.492188 5.375 L 9.933594 4.785156 L 6.460938 4.785156 L 7.25 5.617188 L 8.78125 5.617188 C 8.886719 5.488281 9.054688 5.390625 9.234375 5.390625 C 9.554688 5.390625 9.824219 5.664062 9.824219 6.015625 C 9.824219 6.351562 9.566406 6.640625 9.234375 6.640625 C 9.054688 6.640625 8.902344 6.558594 8.78125 6.414062 L 6.933594 6.414062 L 5.386719 4.769531 L 3.339844 4.769531 C 3.234375 4.894531 3.066406 4.992188 2.886719 4.992188 C 2.566406 4.992188 2.296875 4.71875 2.296875 4.367188 C 2.296875 4.03125 2.554688 3.742188 2.886719 3.742188 C 3.066406 3.742188 3.21875 3.824219 3.339844 3.96875 L 10.25 3.96875 L 11.265625 5.039062 L 11.265625 6.976562 L 10.25 8.03125 Z M 9.234375 5.726562 C 9.097656 5.726562 8.992188 5.839844 8.992188 5.984375 C 8.992188 6.128906 9.097656 6.238281 9.234375 6.238281 C 9.371094 6.238281 9.476562 6.128906 9.476562 5.984375 C 9.492188 5.855469 9.371094 5.726562 9.234375 5.726562 Z M 2.902344 4.097656 C 2.765625 4.097656 2.660156 4.207031 2.660156 4.351562 C 2.660156 4.496094 2.765625 4.609375 2.902344 4.609375 C 3.039062 4.609375 3.144531 4.496094 3.144531 4.351562 C 3.144531 4.222656 3.039062 4.097656 2.902344 4.097656 Z M 2.75 7.328125 C 2.613281 7.328125 2.507812 7.441406 2.507812 7.585938 C 2.507812 7.726562 2.613281 7.839844 2.75 7.839844 C 2.886719 7.839844 2.992188 7.726562 2.992188 7.585938 C 3.007812 7.441406 2.886719 7.328125 2.75 7.328125 Z M 1.296875 5.726562 C 1.160156 5.726562 1.054688 5.839844 1.054688 5.984375 C 1.054688 6.128906 1.160156 6.238281 1.296875 6.238281 C 1.433594 6.238281 1.539062 6.128906 1.539062 5.984375 C 1.539062 5.855469 1.433594 5.726562 1.296875 5.726562 Z M 1.296875 5.726562 "/>
</g>
</svg>
